<mxfile host="Electron" modified="2023-12-14T06:26:36.813Z" agent="Mozilla/5.0 (Windows NT 10.0; Win64; x64) AppleWebKit/537.36 (KHTML, like Gecko) draw.io/22.1.2 Chrome/114.0.5735.289 Electron/25.9.4 Safari/537.36" etag="PgcFlXRNTxVqhnufbiqD" version="22.1.2" type="device">
  <diagram name="Page-1" id="Jjq3vuGFmv7cD4TqGTQA">
    <mxGraphModel dx="1050" dy="621" grid="1" gridSize="10" guides="1" tooltips="1" connect="1" arrows="1" fold="1" page="1" pageScale="1" pageWidth="850" pageHeight="1100" math="0" shadow="0">
      <root>
        <mxCell id="0" />
        <mxCell id="1" parent="0" />
        <mxCell id="9YiL5SmmNUJITHrNY-xT-41" style="edgeStyle=orthogonalEdgeStyle;rounded=0;orthogonalLoop=1;jettySize=auto;html=1;exitX=0.5;exitY=0;exitDx=0;exitDy=0;" edge="1" parent="1" source="9YiL5SmmNUJITHrNY-xT-17" target="9YiL5SmmNUJITHrNY-xT-23">
          <mxGeometry relative="1" as="geometry">
            <mxPoint x="240" y="330" as="targetPoint" />
          </mxGeometry>
        </mxCell>
        <mxCell id="9YiL5SmmNUJITHrNY-xT-17" value="user_id" style="whiteSpace=wrap;html=1;align=center;" vertex="1" parent="1">
          <mxGeometry x="500" y="380" width="100" height="40" as="geometry" />
        </mxCell>
        <mxCell id="9YiL5SmmNUJITHrNY-xT-18" value="order_id" style="whiteSpace=wrap;html=1;align=center;" vertex="1" parent="1">
          <mxGeometry x="400" y="380" width="100" height="40" as="geometry" />
        </mxCell>
        <mxCell id="9YiL5SmmNUJITHrNY-xT-19" value="order_amount" style="whiteSpace=wrap;html=1;align=center;" vertex="1" parent="1">
          <mxGeometry x="600" y="380" width="100" height="40" as="geometry" />
        </mxCell>
        <mxCell id="9YiL5SmmNUJITHrNY-xT-20" value="order_date" style="whiteSpace=wrap;html=1;align=center;" vertex="1" parent="1">
          <mxGeometry x="700" y="380" width="100" height="40" as="geometry" />
        </mxCell>
        <mxCell id="9YiL5SmmNUJITHrNY-xT-21" value="product_id" style="whiteSpace=wrap;html=1;align=center;" vertex="1" parent="1">
          <mxGeometry x="660" y="620" width="100" height="40" as="geometry" />
        </mxCell>
        <mxCell id="9YiL5SmmNUJITHrNY-xT-22" value="product_name" style="whiteSpace=wrap;html=1;align=center;" vertex="1" parent="1">
          <mxGeometry x="760" y="620" width="100" height="40" as="geometry" />
        </mxCell>
        <mxCell id="9YiL5SmmNUJITHrNY-xT-23" value="user_id" style="whiteSpace=wrap;html=1;align=center;" vertex="1" parent="1">
          <mxGeometry x="80" y="180" width="100" height="40" as="geometry" />
        </mxCell>
        <mxCell id="9YiL5SmmNUJITHrNY-xT-25" value="password" style="whiteSpace=wrap;html=1;align=center;" vertex="1" parent="1">
          <mxGeometry x="180" y="180" width="100" height="40" as="geometry" />
        </mxCell>
        <mxCell id="9YiL5SmmNUJITHrNY-xT-26" value="postal_code" style="whiteSpace=wrap;html=1;align=center;" vertex="1" parent="1">
          <mxGeometry x="280" y="180" width="100" height="40" as="geometry" />
        </mxCell>
        <mxCell id="9YiL5SmmNUJITHrNY-xT-27" value="country" style="whiteSpace=wrap;html=1;align=center;" vertex="1" parent="1">
          <mxGeometry x="380" y="180" width="100" height="40" as="geometry" />
        </mxCell>
        <mxCell id="9YiL5SmmNUJITHrNY-xT-29" value="password_dreser_code" style="whiteSpace=wrap;html=1;align=center;" vertex="1" parent="1">
          <mxGeometry x="480" y="180" width="130" height="40" as="geometry" />
        </mxCell>
        <mxCell id="9YiL5SmmNUJITHrNY-xT-31" value="code" style="whiteSpace=wrap;html=1;align=center;" vertex="1" parent="1">
          <mxGeometry x="610" y="180" width="100" height="40" as="geometry" />
        </mxCell>
        <mxCell id="9YiL5SmmNUJITHrNY-xT-32" value="role" style="whiteSpace=wrap;html=1;align=center;" vertex="1" parent="1">
          <mxGeometry x="710" y="180" width="100" height="40" as="geometry" />
        </mxCell>
        <mxCell id="9YiL5SmmNUJITHrNY-xT-33" value="first_name" style="whiteSpace=wrap;html=1;align=center;" vertex="1" parent="1">
          <mxGeometry x="810" y="180" width="100" height="40" as="geometry" />
        </mxCell>
        <mxCell id="9YiL5SmmNUJITHrNY-xT-34" value="last_name" style="whiteSpace=wrap;html=1;align=center;" vertex="1" parent="1">
          <mxGeometry x="910" y="180" width="100" height="40" as="geometry" />
        </mxCell>
        <mxCell id="9YiL5SmmNUJITHrNY-xT-35" value="state" style="whiteSpace=wrap;html=1;align=center;" vertex="1" parent="1">
          <mxGeometry x="1010" y="180" width="100" height="40" as="geometry" />
        </mxCell>
        <mxCell id="9YiL5SmmNUJITHrNY-xT-36" value="city" style="whiteSpace=wrap;html=1;align=center;" vertex="1" parent="1">
          <mxGeometry x="1110" y="180" width="100" height="40" as="geometry" />
        </mxCell>
        <mxCell id="9YiL5SmmNUJITHrNY-xT-37" value="User" style="text;html=1;strokeColor=none;fillColor=none;align=center;verticalAlign=middle;whiteSpace=wrap;rounded=0;" vertex="1" parent="1">
          <mxGeometry x="80" y="130" width="60" height="30" as="geometry" />
        </mxCell>
        <mxCell id="9YiL5SmmNUJITHrNY-xT-38" value="" style="endArrow=none;html=1;rounded=0;exitX=0.1;exitY=0.75;exitDx=0;exitDy=0;exitPerimeter=0;" edge="1" parent="1" source="9YiL5SmmNUJITHrNY-xT-23">
          <mxGeometry width="50" height="50" relative="1" as="geometry">
            <mxPoint x="105" y="260" as="sourcePoint" />
            <mxPoint x="155" y="210" as="targetPoint" />
          </mxGeometry>
        </mxCell>
        <mxCell id="9YiL5SmmNUJITHrNY-xT-39" value="" style="endArrow=none;dashed=1;html=1;rounded=0;exitX=0.1;exitY=0.75;exitDx=0;exitDy=0;exitPerimeter=0;" edge="1" parent="1" source="9YiL5SmmNUJITHrNY-xT-17">
          <mxGeometry width="50" height="50" relative="1" as="geometry">
            <mxPoint x="530" y="450" as="sourcePoint" />
            <mxPoint x="590" y="410" as="targetPoint" />
          </mxGeometry>
        </mxCell>
        <mxCell id="9YiL5SmmNUJITHrNY-xT-40" value="" style="endArrow=none;html=1;rounded=0;exitX=0.2;exitY=0.75;exitDx=0;exitDy=0;exitPerimeter=0;" edge="1" parent="1" source="9YiL5SmmNUJITHrNY-xT-18">
          <mxGeometry width="50" height="50" relative="1" as="geometry">
            <mxPoint x="430" y="460" as="sourcePoint" />
            <mxPoint x="480" y="410" as="targetPoint" />
          </mxGeometry>
        </mxCell>
        <mxCell id="9YiL5SmmNUJITHrNY-xT-42" value="order_detail_id" style="whiteSpace=wrap;html=1;align=center;" vertex="1" parent="1">
          <mxGeometry x="210" y="780" width="100" height="40" as="geometry" />
        </mxCell>
        <mxCell id="9YiL5SmmNUJITHrNY-xT-43" value="description" style="whiteSpace=wrap;html=1;align=center;" vertex="1" parent="1">
          <mxGeometry x="1160" y="620" width="100" height="40" as="geometry" />
        </mxCell>
        <mxCell id="9YiL5SmmNUJITHrNY-xT-44" value="quality" style="whiteSpace=wrap;html=1;align=center;" vertex="1" parent="1">
          <mxGeometry x="1060" y="620" width="100" height="40" as="geometry" />
        </mxCell>
        <mxCell id="9YiL5SmmNUJITHrNY-xT-45" value="image" style="whiteSpace=wrap;html=1;align=center;" vertex="1" parent="1">
          <mxGeometry x="960" y="620" width="100" height="40" as="geometry" />
        </mxCell>
        <mxCell id="9YiL5SmmNUJITHrNY-xT-46" value="price" style="whiteSpace=wrap;html=1;align=center;" vertex="1" parent="1">
          <mxGeometry x="860" y="620" width="100" height="40" as="geometry" />
        </mxCell>
        <mxCell id="9YiL5SmmNUJITHrNY-xT-62" style="edgeStyle=orthogonalEdgeStyle;rounded=0;orthogonalLoop=1;jettySize=auto;html=1;exitX=0.5;exitY=0;exitDx=0;exitDy=0;entryX=0.5;entryY=1;entryDx=0;entryDy=0;" edge="1" parent="1" source="9YiL5SmmNUJITHrNY-xT-47" target="9YiL5SmmNUJITHrNY-xT-18">
          <mxGeometry relative="1" as="geometry" />
        </mxCell>
        <mxCell id="9YiL5SmmNUJITHrNY-xT-47" value="order_id" style="whiteSpace=wrap;html=1;align=center;" vertex="1" parent="1">
          <mxGeometry x="310" y="780" width="100" height="40" as="geometry" />
        </mxCell>
        <mxCell id="9YiL5SmmNUJITHrNY-xT-48" value="product_id" style="whiteSpace=wrap;html=1;align=center;" vertex="1" parent="1">
          <mxGeometry x="410" y="780" width="100" height="40" as="geometry" />
        </mxCell>
        <mxCell id="9YiL5SmmNUJITHrNY-xT-49" value="subtotal" style="whiteSpace=wrap;html=1;align=center;" vertex="1" parent="1">
          <mxGeometry x="510" y="780" width="100" height="40" as="geometry" />
        </mxCell>
        <mxCell id="9YiL5SmmNUJITHrNY-xT-50" value="quantity" style="whiteSpace=wrap;html=1;align=center;" vertex="1" parent="1">
          <mxGeometry x="610" y="780" width="100" height="40" as="geometry" />
        </mxCell>
        <mxCell id="9YiL5SmmNUJITHrNY-xT-51" value="" style="endArrow=none;html=1;rounded=0;exitX=0.1;exitY=0.75;exitDx=0;exitDy=0;exitPerimeter=0;" edge="1" parent="1" source="9YiL5SmmNUJITHrNY-xT-42">
          <mxGeometry width="50" height="50" relative="1" as="geometry">
            <mxPoint x="250" y="860" as="sourcePoint" />
            <mxPoint x="300" y="810" as="targetPoint" />
          </mxGeometry>
        </mxCell>
        <mxCell id="9YiL5SmmNUJITHrNY-xT-52" value="Order" style="text;html=1;strokeColor=none;fillColor=none;align=center;verticalAlign=middle;whiteSpace=wrap;rounded=0;" vertex="1" parent="1">
          <mxGeometry x="410" y="340" width="60" height="30" as="geometry" />
        </mxCell>
        <mxCell id="9YiL5SmmNUJITHrNY-xT-53" value="Product" style="text;html=1;strokeColor=none;fillColor=none;align=center;verticalAlign=middle;whiteSpace=wrap;rounded=0;" vertex="1" parent="1">
          <mxGeometry x="660" y="580" width="60" height="30" as="geometry" />
        </mxCell>
        <mxCell id="9YiL5SmmNUJITHrNY-xT-54" value="Order Detail" style="text;html=1;strokeColor=none;fillColor=none;align=center;verticalAlign=middle;whiteSpace=wrap;rounded=0;" vertex="1" parent="1">
          <mxGeometry x="210" y="740" width="100" height="30" as="geometry" />
        </mxCell>
        <mxCell id="9YiL5SmmNUJITHrNY-xT-55" value="" style="endArrow=none;dashed=1;html=1;rounded=0;exitX=0.2;exitY=0.75;exitDx=0;exitDy=0;exitPerimeter=0;" edge="1" parent="1" source="9YiL5SmmNUJITHrNY-xT-48">
          <mxGeometry width="50" height="50" relative="1" as="geometry">
            <mxPoint x="445" y="860" as="sourcePoint" />
            <mxPoint x="495" y="810" as="targetPoint" />
          </mxGeometry>
        </mxCell>
        <mxCell id="9YiL5SmmNUJITHrNY-xT-56" value="" style="endArrow=none;dashed=1;html=1;rounded=0;exitX=0.2;exitY=0.75;exitDx=0;exitDy=0;exitPerimeter=0;" edge="1" parent="1" source="9YiL5SmmNUJITHrNY-xT-47">
          <mxGeometry width="50" height="50" relative="1" as="geometry">
            <mxPoint x="345" y="860" as="sourcePoint" />
            <mxPoint x="395" y="810" as="targetPoint" />
          </mxGeometry>
        </mxCell>
        <mxCell id="9YiL5SmmNUJITHrNY-xT-59" value="" style="endArrow=none;html=1;rounded=0;exitX=0.2;exitY=0.75;exitDx=0;exitDy=0;exitPerimeter=0;" edge="1" parent="1" source="9YiL5SmmNUJITHrNY-xT-21">
          <mxGeometry width="50" height="50" relative="1" as="geometry">
            <mxPoint x="690" y="700" as="sourcePoint" />
            <mxPoint x="740" y="650" as="targetPoint" />
          </mxGeometry>
        </mxCell>
        <mxCell id="9YiL5SmmNUJITHrNY-xT-60" style="edgeStyle=orthogonalEdgeStyle;rounded=0;orthogonalLoop=1;jettySize=auto;html=1;exitX=0.5;exitY=0;exitDx=0;exitDy=0;entryX=0.352;entryY=1.07;entryDx=0;entryDy=0;entryPerimeter=0;" edge="1" parent="1" source="9YiL5SmmNUJITHrNY-xT-48" target="9YiL5SmmNUJITHrNY-xT-21">
          <mxGeometry relative="1" as="geometry" />
        </mxCell>
        <mxCell id="9YiL5SmmNUJITHrNY-xT-82" style="edgeStyle=orthogonalEdgeStyle;rounded=0;orthogonalLoop=1;jettySize=auto;html=1;exitX=0.5;exitY=1;exitDx=0;exitDy=0;entryX=0.75;entryY=1;entryDx=0;entryDy=0;" edge="1" parent="1" source="9YiL5SmmNUJITHrNY-xT-66" target="9YiL5SmmNUJITHrNY-xT-21">
          <mxGeometry relative="1" as="geometry">
            <mxPoint x="760" y="760" as="targetPoint" />
            <Array as="points">
              <mxPoint x="560" y="1050" />
              <mxPoint x="880" y="1050" />
              <mxPoint x="880" y="710" />
              <mxPoint x="735" y="710" />
            </Array>
          </mxGeometry>
        </mxCell>
        <mxCell id="9YiL5SmmNUJITHrNY-xT-66" value="product_id" style="whiteSpace=wrap;html=1;align=center;" vertex="1" parent="1">
          <mxGeometry x="510" y="990" width="100" height="40" as="geometry" />
        </mxCell>
        <mxCell id="9YiL5SmmNUJITHrNY-xT-80" style="edgeStyle=orthogonalEdgeStyle;rounded=0;orthogonalLoop=1;jettySize=auto;html=1;exitX=0.5;exitY=0;exitDx=0;exitDy=0;entryX=0;entryY=0.75;entryDx=0;entryDy=0;" edge="1" parent="1" source="9YiL5SmmNUJITHrNY-xT-67" target="9YiL5SmmNUJITHrNY-xT-23">
          <mxGeometry relative="1" as="geometry">
            <mxPoint x="60" y="210" as="targetPoint" />
            <Array as="points">
              <mxPoint x="460" y="950" />
              <mxPoint x="60" y="950" />
              <mxPoint x="60" y="210" />
            </Array>
          </mxGeometry>
        </mxCell>
        <mxCell id="9YiL5SmmNUJITHrNY-xT-67" value="user_id" style="whiteSpace=wrap;html=1;align=center;" vertex="1" parent="1">
          <mxGeometry x="410" y="990" width="100" height="40" as="geometry" />
        </mxCell>
        <mxCell id="9YiL5SmmNUJITHrNY-xT-68" value="comment_id" style="whiteSpace=wrap;html=1;align=center;" vertex="1" parent="1">
          <mxGeometry x="310" y="990" width="100" height="40" as="geometry" />
        </mxCell>
        <mxCell id="9YiL5SmmNUJITHrNY-xT-69" value="Comment" style="text;html=1;strokeColor=none;fillColor=none;align=center;verticalAlign=middle;whiteSpace=wrap;rounded=0;" vertex="1" parent="1">
          <mxGeometry x="310" y="950" width="60" height="30" as="geometry" />
        </mxCell>
        <mxCell id="9YiL5SmmNUJITHrNY-xT-72" value="content" style="whiteSpace=wrap;html=1;align=center;" vertex="1" parent="1">
          <mxGeometry x="610" y="990" width="100" height="40" as="geometry" />
        </mxCell>
        <mxCell id="9YiL5SmmNUJITHrNY-xT-73" value="" style="endArrow=none;html=1;rounded=0;exitX=0.1;exitY=0.75;exitDx=0;exitDy=0;exitPerimeter=0;" edge="1" parent="1" source="9YiL5SmmNUJITHrNY-xT-68">
          <mxGeometry width="50" height="50" relative="1" as="geometry">
            <mxPoint x="345" y="1070" as="sourcePoint" />
            <mxPoint x="395" y="1020" as="targetPoint" />
          </mxGeometry>
        </mxCell>
        <mxCell id="9YiL5SmmNUJITHrNY-xT-74" value="" style="endArrow=none;dashed=1;html=1;rounded=0;exitX=0.2;exitY=0.75;exitDx=0;exitDy=0;exitPerimeter=0;" edge="1" parent="1" source="9YiL5SmmNUJITHrNY-xT-67">
          <mxGeometry width="50" height="50" relative="1" as="geometry">
            <mxPoint x="430" y="1070" as="sourcePoint" />
            <mxPoint x="480" y="1020" as="targetPoint" />
          </mxGeometry>
        </mxCell>
        <mxCell id="9YiL5SmmNUJITHrNY-xT-77" value="" style="endArrow=none;dashed=1;html=1;rounded=0;exitX=0.1;exitY=0.75;exitDx=0;exitDy=0;exitPerimeter=0;" edge="1" parent="1" source="9YiL5SmmNUJITHrNY-xT-66">
          <mxGeometry width="50" height="50" relative="1" as="geometry">
            <mxPoint x="545" y="1070" as="sourcePoint" />
            <mxPoint x="595" y="1020" as="targetPoint" />
          </mxGeometry>
        </mxCell>
        <mxCell id="9YiL5SmmNUJITHrNY-xT-83" value="street_address" style="whiteSpace=wrap;html=1;align=center;" vertex="1" parent="1">
          <mxGeometry x="660" y="280" width="100" height="40" as="geometry" />
        </mxCell>
        <mxCell id="9YiL5SmmNUJITHrNY-xT-87" style="edgeStyle=orthogonalEdgeStyle;rounded=0;orthogonalLoop=1;jettySize=auto;html=1;exitX=0.5;exitY=0;exitDx=0;exitDy=0;entryX=0.75;entryY=1;entryDx=0;entryDy=0;" edge="1" parent="1" source="9YiL5SmmNUJITHrNY-xT-84" target="9YiL5SmmNUJITHrNY-xT-23">
          <mxGeometry relative="1" as="geometry" />
        </mxCell>
        <mxCell id="9YiL5SmmNUJITHrNY-xT-84" value="user_id" style="whiteSpace=wrap;html=1;align=center;" vertex="1" parent="1">
          <mxGeometry x="560" y="280" width="100" height="40" as="geometry" />
        </mxCell>
        <mxCell id="9YiL5SmmNUJITHrNY-xT-86" value="" style="endArrow=none;dashed=1;html=1;rounded=0;exitX=0.2;exitY=0.75;exitDx=0;exitDy=0;exitPerimeter=0;" edge="1" parent="1" source="9YiL5SmmNUJITHrNY-xT-84">
          <mxGeometry width="50" height="50" relative="1" as="geometry">
            <mxPoint x="590" y="360" as="sourcePoint" />
            <mxPoint x="640" y="310" as="targetPoint" />
          </mxGeometry>
        </mxCell>
        <mxCell id="9YiL5SmmNUJITHrNY-xT-90" style="edgeStyle=orthogonalEdgeStyle;rounded=0;orthogonalLoop=1;jettySize=auto;html=1;exitX=0.5;exitY=0;exitDx=0;exitDy=0;entryX=0.75;entryY=1;entryDx=0;entryDy=0;" edge="1" parent="1" source="9YiL5SmmNUJITHrNY-xT-88" target="9YiL5SmmNUJITHrNY-xT-18">
          <mxGeometry relative="1" as="geometry" />
        </mxCell>
        <mxCell id="9YiL5SmmNUJITHrNY-xT-88" value="order_id" style="whiteSpace=wrap;html=1;align=center;" vertex="1" parent="1">
          <mxGeometry x="1260" y="620" width="100" height="40" as="geometry" />
        </mxCell>
        <mxCell id="9YiL5SmmNUJITHrNY-xT-89" value="" style="endArrow=none;dashed=1;html=1;rounded=0;exitX=0.2;exitY=0.75;exitDx=0;exitDy=0;exitPerimeter=0;" edge="1" parent="1" source="9YiL5SmmNUJITHrNY-xT-88">
          <mxGeometry width="50" height="50" relative="1" as="geometry">
            <mxPoint x="1285" y="700" as="sourcePoint" />
            <mxPoint x="1335" y="650" as="targetPoint" />
          </mxGeometry>
        </mxCell>
        <mxCell id="9YiL5SmmNUJITHrNY-xT-93" style="edgeStyle=orthogonalEdgeStyle;rounded=0;orthogonalLoop=1;jettySize=auto;html=1;exitX=0.5;exitY=1;exitDx=0;exitDy=0;entryX=0.25;entryY=1;entryDx=0;entryDy=0;" edge="1" parent="1" source="9YiL5SmmNUJITHrNY-xT-91" target="9YiL5SmmNUJITHrNY-xT-23">
          <mxGeometry relative="1" as="geometry">
            <Array as="points">
              <mxPoint x="760" y="840" />
              <mxPoint x="120" y="840" />
              <mxPoint x="120" y="270" />
              <mxPoint x="105" y="270" />
            </Array>
          </mxGeometry>
        </mxCell>
        <mxCell id="9YiL5SmmNUJITHrNY-xT-91" value="user_id" style="whiteSpace=wrap;html=1;align=center;" vertex="1" parent="1">
          <mxGeometry x="710" y="780" width="100" height="40" as="geometry" />
        </mxCell>
        <mxCell id="9YiL5SmmNUJITHrNY-xT-92" value="" style="endArrow=none;dashed=1;html=1;rounded=0;exitX=0.25;exitY=0.75;exitDx=0;exitDy=0;exitPerimeter=0;" edge="1" parent="1" source="9YiL5SmmNUJITHrNY-xT-91">
          <mxGeometry width="50" height="50" relative="1" as="geometry">
            <mxPoint x="735" y="860" as="sourcePoint" />
            <mxPoint x="785" y="810" as="targetPoint" />
          </mxGeometry>
        </mxCell>
      </root>
    </mxGraphModel>
  </diagram>
</mxfile>
